# xmcd
#
# Track frame offsets: 
#        150
#        9997
#        22034
#        33022
#        46829
#        59339
#        74242
#        88930
#        102765
#        110930
#        123045
#        133920
#        146158
#        154465
#        166935
#        178557
#        187464
#        200381
#
# Disc length: 2849 seconds
#
# Revision: 0
# Processed by: cddbd v1.5.2PL0 Copyright (c) Steve Scherf et al.
# Submitted via: ExactAudioCopy v1.0b3
#
DISCID=0c0b1f12
DTITLE=Alvin Robinson - compilation
DYEAR=1900
DGENRE=R&B
TTITLE0=Alvin Robinson - Better Be Cool
TTITLE1=Alvin Robinson - Bottom Of My Soul
TTITLE2=Alvin Robinson - Cry, Cry, Cry
TTITLE3=Alvin Robinson - Down Home Girl
TTITLE4=Alvin Robinson - Empty Talk
TTITLE5=Alvin Robinson - Fever
TTITLE6=Alvin Robinson - Give Her Up
TTITLE7=Alvin Robinson - How Can I Get Over You
TTITLE8=Alvin Robinson - I'm Gonna Put Some Hurt On You
TTITLE9=Alvin Robinson - I've Never Been In Love
TTITLE10=Alvin Robinson - Let The Good Times Roll
TTITLE11=Alvin Robinson - Searchin'
TTITLE12=Alvin Robinson - Serpent Woman
TTITLE13=Alvin Robinson - Sho 'Bout To Drive Me Wild
TTITLE14=Alvin Robinson - Somethin' You Got
TTITLE15=Alvin Robinson - Soulful Woman
TTITLE16=Alvin Robinson - Tuned In, Turned On
TTITLE17=Alvin Robinson - We Got Love
EXTD=
EXTT0=
EXTT1=
EXTT2=
EXTT3=
EXTT4=
EXTT5=
EXTT6=
EXTT7=
EXTT8=
EXTT9=
EXTT10=
EXTT11=
EXTT12=
EXTT13=
EXTT14=
EXTT15=
EXTT16=
EXTT17=
PLAYORDER=
